<svg version="1.2" xmlns="http://www.w3.org/2000/svg" viewBox="0 0 24 24" width="24" height="24"><style></style><path  d="m22.7 5.3l-5.6-4.5q-0.2-0.2-0.4-0.3-0.3-0.1-0.6-0.2-0.2-0.1-0.5-0.2-0.3 0-0.6 0h-12.9q-0.4 0-0.8 0.1-0.4 0.2-0.6 0.5-0.3 0.2-0.5 0.6-0.1 0.4-0.1 0.8v19.8q0 0.4 0.1 0.8 0.2 0.3 0.5 0.6 0.2 0.3 0.6 0.4 0.4 0.2 0.8 0.2h19.8q0.4 0 0.8-0.2 0.3-0.1 0.6-0.4 0.3-0.3 0.4-0.6 0.2-0.4 0.2-0.8v-14q0-0.4-0.1-0.7-0.1-0.4-0.2-0.7-0.2-0.3-0.4-0.6-0.2-0.3-0.5-0.6zm-0.1 16.6q0 0.1-0.1 0.2 0 0.2-0.1 0.3-0.1 0.1-0.3 0.1-0.1 0.1-0.2 0.1h-1.3v-7.9q0-0.7-0.3-1.3-0.3-0.6-0.7-1.1-0.5-0.5-1.1-0.7-0.6-0.3-1.3-0.3h-10.5q-0.6 0-1.2 0.3-0.7 0.2-1.1 0.7-0.5 0.5-0.7 1.1-0.3 0.6-0.3 1.3v7.9h-1.3q-0.2 0-0.3-0.1-0.1 0-0.2-0.1-0.1-0.1-0.2-0.3 0-0.1 0-0.2v-19.8q0-0.2 0-0.3 0.1-0.1 0.2-0.2 0.1-0.1 0.2-0.2 0.1 0 0.3 0h1.3v1.8q0 0.4 0.2 0.8 0.1 0.4 0.4 0.6 0.3 0.3 0.6 0.5 0.4 0.1 0.8 0.1h6.3q0.4 0 0.8-0.1 0.4-0.2 0.6-0.5 0.3-0.2 0.5-0.6 0.1-0.4 0.1-0.8v-1.8h1.3q0.2 0 0.4 0 0.1 0.1 0.3 0.1 0.2 0.1 0.3 0.2 0.2 0 0.3 0.2l5.5 4.5q0.2 0.1 0.3 0.3 0.2 0.1 0.3 0.4 0.1 0.2 0.1 0.4 0.1 0.2 0.1 0.4zm-17.9 0.7v-7.9q0-0.4 0.2-0.8 0.1-0.4 0.4-0.6 0.3-0.3 0.7-0.5 0.3-0.1 0.7-0.1h10.5q0.4 0 0.8 0.1 0.4 0.2 0.6 0.5 0.3 0.2 0.5 0.6 0.1 0.4 0.1 0.8v7.9zm0-21.2h7.7v1.9q0 0.1-0.1 0.2 0 0.1-0.1 0.2-0.1 0.1-0.2 0.2-0.1 0-0.3 0h-6.3q-0.1 0-0.3 0-0.1-0.1-0.2-0.2-0.1-0.1-0.1-0.2-0.1-0.1-0.1-0.2z"/></svg>