<svg version="1.2" xmlns="http://www.w3.org/2000/svg" viewBox="0 0 24 24" width="24" height="24"><style/><path fill-rule="evenodd" d="m14.2 0c0.8 0 1.5 0.3 2.1 0.9l2.8 2.8c0.6 0.6 0.9 1.3 0.9 2.1v11.2c0 1.7-1.3 3-3 3h-14c-1.7 0-3-1.3-3-3v-14c0-1.7 1.3-3 3-3zm-12.2 17c0 0.6 0.5 1 1 1h1v-7c0-0.6 0.5-1 1-1h10c0.6 0 1 0.4 1 1v7h1c0.6 0 1-0.4 1-1v-11.2q0-0.4-0.3-0.7l-2.8-2.8q-0.3-0.3-0.7-0.3h-0.2v3c0 0.6-0.4 1-1 1h-7c-0.5 0-1-0.4-1-1v-3h-2c-0.5 0-1 0.4-1 1zm10-15h-5v2h5zm-6 16h8v-6h-8zm5.7-4l-2.4 2.5-1.3-1.3z"/></svg>
