<svg version="1.2" xmlns="http://www.w3.org/2000/svg" viewBox="0 0 24 24" width="24" height="24"><style></style><path fill-rule="evenodd" d="m23.2 5.9q0.2 0.3 0.4 0.6 0.1 0.3 0.2 0.7 0.1 0.3 0.1 0.7v14q0 0.4-0.2 0.8-0.1 0.3-0.4 0.6-0.3 0.3-0.6 0.4-0.4 0.2-0.8 0.2h-19.8q-0.4 0-0.8-0.2-0.4-0.1-0.6-0.4-0.3-0.3-0.5-0.6-0.1-0.4-0.1-0.8v-19.8q0-0.4 0.1-0.8 0.2-0.4 0.5-0.6 0.2-0.3 0.6-0.5 0.4-0.1 0.8-0.1h12.9q0.3 0 0.6 0 0.3 0.1 0.5 0.2 0.3 0.1 0.6 0.2 0.2 0.1 0.4 0.3l5.6 4.5q0.3 0.3 0.5 0.6zm-0.6 2q0-0.2-0.1-0.4 0-0.2-0.1-0.4-0.1-0.3-0.3-0.4-0.1-0.2-0.3-0.3l-5.5-4.5q-0.1-0.2-0.3-0.2-0.1-0.1-0.3-0.2-0.2 0-0.3-0.1-0.2 0-0.4 0h-1.3v1.8q0 0.4-0.1 0.8-0.2 0.4-0.5 0.6-0.2 0.3-0.6 0.5-0.4 0.1-0.8 0.1h-6.3q-0.4 0-0.8-0.1-0.3-0.2-0.6-0.5-0.3-0.2-0.4-0.6-0.2-0.4-0.2-0.8v-1.8h-1.3q-0.2 0-0.3 0-0.1 0.1-0.2 0.2-0.1 0.1-0.2 0.2 0 0.1 0 0.3v19.8q0 0.1 0 0.2 0.1 0.2 0.2 0.3 0.1 0.1 0.2 0.1 0.1 0.1 0.3 0.1h1.3v-7.9q0-0.7 0.3-1.3 0.2-0.6 0.7-1.1 0.4-0.5 1.1-0.7 0.6-0.3 1.2-0.3h10.5q0.7 0 1.3 0.3 0.6 0.2 1.1 0.7 0.4 0.5 0.7 1.1 0.3 0.6 0.3 1.3v7.9h1.3q0.1 0 0.2-0.1 0.2 0 0.3-0.1 0.1-0.1 0.1-0.3 0.1-0.1 0.1-0.2zm-3.4 14.6v-7.9q0-0.4-0.1-0.7-0.2-0.4-0.5-0.7-0.2-0.3-0.6-0.4-0.4-0.2-0.8-0.2h-10.5q-0.4 0-0.7 0.2-0.4 0.1-0.7 0.4-0.3 0.3-0.4 0.7-0.2 0.3-0.2 0.7v7.9zm-14.5-19.3q0 0.1 0.1 0.3 0 0.1 0.1 0.2 0.1 0.1 0.2 0.1 0.2 0.1 0.3 0.1h6.3q0.2 0 0.3-0.1 0.1 0 0.2-0.1 0.1-0.1 0.2-0.2 0-0.2 0-0.3v-1.8h-7.7zm10.3 11.7l-4 4-2-2z"/></svg>