<svg version="1.2" xmlns="http://www.w3.org/2000/svg" viewBox="0 0 24 24" width="24" height="24"><style>.a{fill:none;stroke:#000;stroke-linecap:round;stroke-linejoin:round;stroke-width:2}</style><path class="a" d="m13.2 1q0.2 0 0.4 0 0.2 0.1 0.4 0.2 0.1 0 0.3 0.1 0.2 0.2 0.3 0.3l3.8 3.8q0.1 0.1 0.3 0.3 0.1 0.2 0.1 0.3 0.1 0.2 0.2 0.4 0 0.2 0 0.4v10.2q0 0.4-0.2 0.8-0.1 0.3-0.4 0.6-0.3 0.3-0.6 0.4-0.4 0.2-0.8 0.2h-14q-0.4 0-0.8-0.2-0.3-0.1-0.6-0.4-0.3-0.3-0.4-0.6-0.2-0.4-0.2-0.8v-14q0-0.4 0.2-0.8 0.1-0.3 0.4-0.6 0.3-0.3 0.6-0.4 0.4-0.2 0.8-0.2z"/><path class="a" d="m15 19v-7q0-0.2-0.1-0.4-0.1-0.2-0.2-0.3-0.1-0.1-0.3-0.2-0.2-0.1-0.4-0.1h-8q-0.2 0-0.4 0.1-0.2 0.1-0.3 0.2-0.1 0.1-0.2 0.3-0.1 0.2-0.1 0.4v7"/><path class="a" d="m5 1v4q0 0.2 0.1 0.4 0.1 0.2 0.2 0.3 0.1 0.1 0.3 0.2 0.2 0.1 0.4 0.1h7"/><path class="a" d="m8 15.4l1.4 1.4 2.8-2.8"/></svg>
